<svg width="138" height="112" viewBox="0 0 138 112" fill="none" xmlns="http://www.w3.org/2000/svg">
<path d="M60.5049 60.9648C66.1268 59.9956 71.8732 59.9956 77.4951 60.9648L81.3359 61.627C82.0847 61.7563 82.4214 62.6408 81.9482 63.2354L71.8438 75.9258L95.1084 101.829L93.248 103.5L91.3887 105.171L68.999 80.2412L46.6113 105.171L42.8906 101.829L66.1543 75.9258L56.0518 63.2354C55.5786 62.6408 55.9153 61.7563 56.6641 61.627L60.5049 60.9648ZM46 39.5C50.4183 39.5 54 43.0817 54 47.5C54 51.9183 50.4183 55.5 46 55.5C41.5817 55.5 38 51.9183 38 47.5C38 43.0817 41.5817 39.5 46 39.5ZM92 39.5C96.4183 39.5 100 43.0817 100 47.5C100 51.9183 96.4183 55.5 92 55.5C87.5817 55.5 84 51.9183 84 47.5C84 43.0817 87.5817 39.5 92 39.5Z" fill="#38DA7D"/>
<path d="M104.845 5.53383C98.428 2.14746 91.1793 0.18211 83.5468 0.0117227L82.4629 4.02483e-06L55.5371 5.20179e-06C47.5074 1.28312e-05 39.8752 1.98781 33.1554 5.53396C29.8846 3.606 26.0715 2.5 22 2.5C9.84973 2.5 -3.80289e-06 12.3497 -3.80289e-06 24.5C-3.80289e-06 31.3059 3.09051 37.39 7.9447 41.4255L3.53707 65.5918C1.95541 74.2643 4.87555 83.1475 11.2949 89.1895L27.4912 104.434C32.314 108.973 38.6876 111.5 45.3105 111.5L92.6895 111.5L93.3095 111.492C99.7092 111.34 105.837 108.831 110.509 104.434L126.705 89.1895L127.296 88.6152C133.302 82.5929 135.995 73.9935 134.463 65.5918L130.055 41.4256C134.909 37.3901 138 31.306 138 24.5C138 12.3497 128.15 2.49999 116 2.49999C111.929 2.49999 108.116 3.60596 104.845 5.53383ZM15.3418 67.7441L19.2477 46.3295L20.1211 41.541C20.5681 39.09 21.257 36.735 22.1604 34.4987L22.0841 34.4996C22.0561 34.4999 22.028 34.5 22 34.5C17.366 34.5 13.4683 31.348 12.3336 27.0711C12.116 26.2507 12 25.3889 12 24.5C12 19.2728 16.0106 14.9823 21.1226 14.538C21.4117 14.5128 21.7044 14.5 22 14.5C26.3813 14.5 30.1044 17.3176 31.4564 21.2396C34.4736 18.5253 37.9442 16.3228 41.727 14.75C45.9999 12.9733 50.6712 12 55.5371 12L82.4629 12C87.3288 12 92.0001 12.9733 96.273 14.75C100.056 16.3229 103.526 18.5254 106.544 21.2396C107.896 17.3176 111.619 14.5 116 14.5C116.296 14.5 116.588 14.5128 116.877 14.538C121.989 14.9824 126 19.2728 126 24.5C126 25.3889 125.884 26.2507 125.666 27.0711C124.532 31.3481 120.634 34.5 116 34.5C115.946 34.5 115.893 34.4996 115.84 34.4987C116.743 36.735 117.432 39.09 117.879 41.541L118.752 46.3295L122.658 67.7441C123.51 72.414 121.937 77.1978 118.48 80.4512L102.284 95.6943C99.6873 98.1384 96.2556 99.4999 92.6894 99.5L45.3105 99.5C41.7444 99.4999 38.3126 98.1384 35.7158 95.6943L19.5195 80.4512C16.0629 77.1978 14.49 72.414 15.3418 67.7441Z" fill="white"/>
</svg>
