<svg width="772" height="112" viewBox="0 0 772 112" fill="none" xmlns="http://www.w3.org/2000/svg">
<path d="M506.099 108.327L525.595 10.8477C526.529 6.17345 530.634 2.80885 535.4 2.80885H571.369C582.223 2.80885 591.518 4.61774 599.256 8.23551C607.095 11.7528 613.074 16.8277 617.194 23.4603C621.314 29.9924 623.375 37.7806 623.375 46.825C623.375 56.1709 621.767 64.6124 618.551 72.1494C615.436 79.6864 610.964 86.1683 605.135 91.5949C599.306 96.9211 592.372 101.041 584.333 103.956C576.293 106.87 567.4 108.327 557.652 108.327H506.099ZM534.589 88.2786H558.406C566.947 88.2786 574.183 86.52 580.112 83.0027C586.142 79.4854 590.714 74.712 593.83 68.6824C597.045 62.6528 598.653 55.8192 598.653 48.1817C598.653 42.956 597.548 38.4841 595.337 34.7658C593.126 30.947 589.76 28.0327 585.237 26.0229C580.816 23.9125 575.288 22.8573 568.656 22.8573H547.703L534.589 88.2786Z" fill="white"/>
<path d="M376.82 108.327L442 7.38431C443.842 4.53182 447.006 2.80885 450.401 2.80885H469.224L495.151 108.327H470.731L450.231 14.8681H459.878L402.898 108.327H376.82ZM405.008 85.716L414.957 67.175H469.375L472.239 85.716H405.008Z" fill="white"/>
<path d="M360.799 10.8477C361.734 6.17345 365.838 2.80885 370.605 2.80885H386.827L367.331 100.288C366.396 104.962 362.292 108.327 357.525 108.327H341.303L360.799 10.8477ZM295.126 100.288C294.191 104.962 290.087 108.327 285.32 108.327H268.948L288.444 10.8477C289.378 6.17345 293.483 2.80885 298.249 2.80885H314.622L295.126 100.288ZM351.855 65.0646H300.452L304.522 44.4132H355.925L351.855 65.0646Z" fill="white"/>
<path d="M213.867 110.136C203.115 110.136 193.819 108.227 185.981 104.408C178.243 100.489 172.263 95.1122 168.042 88.2786C163.822 81.3446 161.711 73.3553 161.711 64.3109C161.711 55.367 163.269 47.026 166.384 39.288C169.6 31.55 174.072 24.8672 179.8 19.2396C185.629 13.5114 192.513 9.03948 200.452 5.82369C208.491 2.6079 217.435 1 227.283 1C236.73 1 245.071 2.6079 252.306 5.82369C259.542 9.03948 265.019 13.6622 268.737 19.6918L251.1 34.1629C248.387 30.1431 244.92 27.0781 240.699 24.9677C236.479 22.8573 231.454 21.8022 225.625 21.8022C219.696 21.8022 214.32 22.8573 209.496 24.9677C204.672 26.9776 200.502 29.8919 196.985 33.7106C193.568 37.4289 190.955 41.8004 189.146 46.8251C187.337 51.8497 186.433 57.1759 186.433 62.8035C186.433 68.1297 187.588 72.8026 189.9 76.8224C192.211 80.7416 195.578 83.8067 199.999 86.0175C204.421 88.2284 209.747 89.3338 215.978 89.3338C221.404 89.3338 226.479 88.3791 231.203 86.4698C235.926 84.4599 240.197 81.3446 244.016 77.1239L258.487 91.8964C252.959 98.328 246.377 103.001 238.74 105.915C231.203 108.729 222.912 110.136 213.867 110.136Z" fill="white"/>
<path d="M108.933 108.327L128.429 10.8477C129.364 6.17345 133.468 2.80885 138.235 2.80885H154.608L135.112 100.288C134.177 104.962 130.073 108.327 125.306 108.327H108.933Z" fill="white"/>
<path d="M0 108.327L19.4959 10.8477C20.4307 6.17345 24.5349 2.80885 29.3017 2.80885H63.7632C76.9278 2.80885 87.0777 5.72317 94.2127 11.5518C101.448 17.2799 105.066 25.3194 105.066 35.6702C105.066 44.5137 103.006 52.2517 98.8857 58.8843C94.7654 65.4163 88.8363 70.441 81.0983 73.9583C73.4608 77.4756 64.3661 79.2342 53.8143 79.2342H19.5962L32.5599 68.0794L26.1692 100.274C25.24 104.955 21.1328 108.327 16.3606 108.327H0ZM31.9569 70.9435L23.3648 59.3365H54.8695C62.909 59.3365 69.1396 57.5276 73.5613 53.9098C78.0835 50.1916 80.3446 44.8152 80.3446 37.7806C80.3446 32.6554 78.6362 28.8869 75.2194 26.4751C71.8026 23.9627 66.9789 22.7066 60.7483 22.7066H31.0525L44.0162 10.7981L31.9569 70.9435Z" fill="white"/>
<path d="M693.793 60.9648C699.415 59.9956 705.161 59.9956 710.783 60.9648L714.624 61.627C715.373 61.7563 715.709 62.6408 715.236 63.2354L705.132 75.9258L728.396 101.829L726.536 103.5L724.677 105.171L702.287 80.2412L679.899 105.171L676.179 101.829L699.442 75.9258L689.34 63.2354C688.867 62.6408 689.203 61.7563 689.952 61.627L693.793 60.9648ZM679.288 39.5C683.706 39.5 687.288 43.0817 687.288 47.5C687.288 51.9183 683.706 55.5 679.288 55.5C674.87 55.5 671.288 51.9183 671.288 47.5C671.288 43.0817 674.87 39.5 679.288 39.5ZM725.288 39.5C729.706 39.5 733.288 43.0817 733.288 47.5C733.288 51.9183 729.706 55.5 725.288 55.5C720.87 55.5 717.288 51.9183 717.288 47.5C717.288 43.0817 720.87 39.5 725.288 39.5Z" fill="#38DA7D"/>
<path d="M738.133 5.53383C731.716 2.14746 724.467 0.18211 716.835 0.0117227L715.751 4.02483e-06L688.825 5.20179e-06C680.795 1.28312e-05 673.163 1.98781 666.443 5.53396C663.173 3.606 659.359 2.5 655.288 2.5C643.138 2.5 633.288 12.3497 633.288 24.5C633.288 31.3059 636.378 37.39 641.233 41.4255L636.825 65.5918C635.243 74.2643 638.164 83.1475 644.583 89.1895L660.779 104.434C665.602 108.973 671.976 111.5 678.599 111.5L725.977 111.5L726.598 111.492C732.997 111.34 739.125 108.831 743.797 104.434L759.993 89.1895L760.584 88.6152C766.59 82.5929 769.283 73.9935 767.751 65.5918L763.343 41.4256C768.197 37.3901 771.288 31.306 771.288 24.5C771.288 12.3497 761.438 2.49999 749.288 2.49999C745.217 2.49999 741.403 3.60596 738.133 5.53383ZM648.63 67.7441L652.536 46.3295L653.409 41.541C653.856 39.09 654.545 36.735 655.448 34.4987L655.372 34.4996C655.344 34.4999 655.316 34.5 655.288 34.5C650.654 34.5 646.756 31.348 645.622 27.0711C645.404 26.2507 645.288 25.3889 645.288 24.5C645.288 19.2728 649.299 14.9823 654.411 14.538C654.7 14.5128 654.992 14.5 655.288 14.5C659.669 14.5 663.392 17.3176 664.744 21.2396C667.762 18.5253 671.232 16.3228 675.015 14.75C679.288 12.9733 683.959 12 688.825 12L715.751 12C720.617 12 725.288 12.9733 729.561 14.75C733.344 16.3229 736.814 18.5254 739.832 21.2396C741.183 17.3176 744.907 14.5 749.288 14.5C749.584 14.5 749.876 14.5128 750.165 14.538C755.277 14.9824 759.288 19.2728 759.288 24.5C759.288 25.3889 759.172 26.2507 758.954 27.0711C757.82 31.3481 753.922 34.5 749.288 34.5C749.234 34.5 749.181 34.4996 749.127 34.4987C750.031 36.735 750.72 39.09 751.167 41.541L752.04 46.3295L755.946 67.7441C756.798 72.414 755.225 77.1978 751.768 80.4512L735.572 95.6943C732.975 98.1384 729.544 99.4999 725.977 99.5L678.598 99.5C675.032 99.4999 671.601 98.1384 669.004 95.6943L652.807 80.4512C649.351 77.1978 647.778 72.414 648.63 67.7441Z" fill="white"/>
</svg>
